HIERARCHY
ROOT hip
{
  OFFSET -103.335 82.6317 55.9145
  CHANNELS 6 Xposition Yposition Zposition Zrotation Xrotation Yrotation
  JOINT abdomen
  {
    OFFSET 0 20.6881 -0.73152
    CHANNELS 3 Zrotation Xrotation Yrotation
    JOINT chest
    {
      OFFSET 0 11.7043 -0.48768
      CHANNELS 3 Zrotation Xrotation Yrotation
      JOINT neck
      {
        OFFSET 0 22.1894 -2.19456
        CHANNELS 3 Zrotation Xrotation Yrotation
        JOINT head
        {
          OFFSET -0.24384 7.07133 1.2192
          CHANNELS 3 Zrotation Xrotation Yrotation
          JOINT leftEye
          {
            OFFSET 4.14528 8.04674 8.04672
            CHANNELS 3 Zrotation Xrotation Yrotation
            End Site
            {
              OFFSET 1 0 0
            }
          }
          JOINT rightEye
          {
            OFFSET -3.6576 8.04674 8.04672
            CHANNELS 3 Zrotation Xrotation Yrotation
            End Site
            {
              OFFSET 1 0 0
            }
          }
        }
      }
      JOINT rCollar
      {
        OFFSET -2.68224 19.2634 -4.8768
        CHANNELS 3 Zrotation Xrotation Yrotation
        JOINT rShldr
        {
          OFFSET -8.77824 -1.95073 1.46304
          CHANNELS 3 Zrotation Xrotation Yrotation
          JOINT rForeArm
          {
            OFFSET -28.1742 -1.7115 0.48768
            CHANNELS 3 Zrotation Xrotation Yrotation
            JOINT rHand
            {
              OFFSET -22.5879 0.773209 7.07136
              CHANNELS 3 Zrotation Xrotation Yrotation
              JOINT rThumb1
              {
                OFFSET -1.2192 -0.487915 3.41376
                CHANNELS 3 Zrotation Xrotation Yrotation
                JOINT rThumb2
                {
                  OFFSET -3.37035 -0.52449 3.41376
                  CHANNELS 3 Zrotation Xrotation Yrotation
                  End Site
                  {
                    OFFSET -1.78271 -1.18214 1.43049
                  }
                }
              }
              JOINT rIndex1
              {
                OFFSET -7.75947 0.938293 5.60832
                CHANNELS 3 Zrotation Xrotation Yrotation
                JOINT rIndex2
                {
                  OFFSET -2.54057 -0.884171 1.56538
                  CHANNELS 3 Zrotation Xrotation Yrotation
                  End Site
                  {
                    OFFSET -1.62519 -0.234802 1.16502
                  }
                }
              }
              JOINT rMid1
              {
                OFFSET -8.24714 1.18213 3.41376
                CHANNELS 3 Zrotation Xrotation Yrotation
                JOINT rMid2
                {
                  OFFSET -3.10165 -0.590103 1.0647
                  CHANNELS 3 Zrotation Xrotation Yrotation
                  End Site
                  {
                    OFFSET -2.48547 -0.328903 0.83742
                  }
                }
              }
              JOINT rRing1
              {
                OFFSET -8.82822 0.546677 1.51678
                CHANNELS 3 Zrotation Xrotation Yrotation
                JOINT rRing2
                {
                  OFFSET -2.60934 -0.819778 -0.0198488
                  CHANNELS 3 Zrotation Xrotation Yrotation
                  End Site
                  {
                    OFFSET -2.33842 -0.294052 0.168128
                  }
                }
              }
              JOINT rPinky1
              {
                OFFSET -8.27202 -0.0477905 -0.4584
                CHANNELS 3 Zrotation Xrotation Yrotation
                JOINT rPinky2
                {
                  OFFSET -1.82734 -0.647385 -0.700984
                  CHANNELS 3 Zrotation Xrotation Yrotation
                  End Site
                  {
                    OFFSET -1.69225 -0.51767 -0.607171
                  }
                }
              }
            }
          }
        }
      }
      JOINT lCollar
      {
        OFFSET 2.68224 19.2634 -4.8768
        CHANNELS 3 Zrotation Xrotation Yrotation
        JOINT lShldr
        {
          OFFSET 8.77824 -1.95073 1.46304
          CHANNELS 3 Zrotation Xrotation Yrotation
          JOINT lForeArm
          {
            OFFSET 28.1742 -1.7115 0.48768
            CHANNELS 3 Zrotation Xrotation Yrotation
            JOINT lHand
            {
              OFFSET 22.5879 0.773209 7.07136
              CHANNELS 3 Zrotation Xrotation Yrotation
              JOINT lThumb1
              {
                OFFSET 1.2192 -0.487915 3.41376
                CHANNELS 3 Zrotation Xrotation Yrotation
                JOINT lThumb2
                {
                  OFFSET 3.37035 -0.52449 3.41376
                  CHANNELS 3 Zrotation Xrotation Yrotation
                  End Site
                  {
                    OFFSET 1.78271 -1.18214 1.43049
                  }
                }
              }
              JOINT lIndex1
              {
                OFFSET 7.75947 0.938293 5.60832
                CHANNELS 3 Zrotation Xrotation Yrotation
                JOINT lIndex2
                {
                  OFFSET 2.54057 -0.884171 1.56538
                  CHANNELS 3 Zrotation Xrotation Yrotation
                  End Site
                  {
                    OFFSET 1.62519 -0.234802 1.16502
                  }
                }
              }
              JOINT lMid1
              {
                OFFSET 8.24714 1.18213 3.41376
                CHANNELS 3 Zrotation Xrotation Yrotation
                JOINT lMid2
                {
                  OFFSET 3.10165 -0.590103 1.0647
                  CHANNELS 3 Zrotation Xrotation Yrotation
                  End Site
                  {
                    OFFSET 2.48547 -0.328903 0.83742
                  }
                }
              }
              JOINT lRing1
              {
                OFFSET 8.82822 0.546677 1.51678
                CHANNELS 3 Zrotation Xrotation Yrotation
                JOINT lRing2
                {
                  OFFSET 2.60934 -0.819778 -0.0198488
                  CHANNELS 3 Zrotation Xrotation Yrotation
                  End Site
                  {
                    OFFSET 2.33842 -0.294052 0.168128
                  }
                }
              }
              JOINT lPinky1
              {
                OFFSET 8.27202 -0.0477905 -0.4584
                CHANNELS 3 Zrotation Xrotation Yrotation
                JOINT lPinky2
                {
                  OFFSET 1.82734 -0.647385 -0.700984
                  CHANNELS 3 Zrotation Xrotation Yrotation
                  End Site
                  {
                    OFFSET 1.69225 -0.51767 -0.607171
                  }
                }
              }
            }
          }
        }
      }
    }
  }
  JOINT rButtock
  {
    OFFSET -8.77824 4.35084 1.2192
    CHANNELS 3 Zrotation Xrotation Yrotation
    JOINT rThigh
    {
      OFFSET 0 -1.70687 -2.19456
      CHANNELS 3 Zrotation Xrotation Yrotation
      JOINT rShin
      {
        OFFSET 0 -36.8199 0.73152
        CHANNELS 3 Zrotation Xrotation Yrotation
        JOINT rFoot
        {
          OFFSET 0.73152 -45.1104 -5.12064
          CHANNELS 3 Zrotation Xrotation Yrotation
          End Site
          {
            OFFSET -1.1221 -3.69964 12.103
          }
        }
      }
    }
  }
  JOINT lButtock
  {
    OFFSET 8.77824 4.35084 1.2192
    CHANNELS 3 Zrotation Xrotation Yrotation
    JOINT lThigh
    {
      OFFSET 0 -1.70687 -2.19456
      CHANNELS 3 Zrotation Xrotation Yrotation
      JOINT lShin
      {
        OFFSET 0 -36.8199 0.73152
        CHANNELS 3 Zrotation Xrotation Yrotation
        JOINT lFoot
        {
          OFFSET -0.73152 -45.1104 -5.12064
          CHANNELS 3 Zrotation Xrotation Yrotation
          End Site
          {
            OFFSET 1.1221 -3.69964 12.103
          }
        }
      }
    }
  }
}
MOTION
Frames:	6
Frame Time:	0.00833333
55.0239 84.61 18.731 -2.70892 -4.09761 -50.5073 -1.81345 14.3188 0.914023 0.882627 -5.75191 0.265024 -13.9973 3.66639 -9.26405 25.7192 15.9229 -17.9534 -0 0 0 -0 0 0 8.49966e-014 -1.88621e-013 -1.05229e-012 79.8954 7.96512 -7.97034 -15.8413 -8.54056 29.3384 -0.0184967 3.88888 0.547389 3.86845e-009 7.00372e-009 -2.48124e-009 6.68429e-009 1.21616e-008 -4.31838e-009 3.86845e-009 7.00372e-009 -2.48125e-009 7.73091 5.47488 0.417314 3.86845e-009 7.00372e-009 -2.48124e-009 2.90554 0.965183 0.102902 3.86846e-009 7.00372e-009 -2.48124e-009 10.2786 0.731801 0.0259123 3.86844e-009 7.00373e-009 -2.48124e-009 2.22167 -0.733487 -0.20892 8.47462e-014 -1.88616e-013 -1.05257e-012 -77.9909 21.617 -2.72871 14.8664 -7.67552 -27.3136 0.0775443 7.9159 -1.11972 4.7456e-009 4.43568e-009 -2.28457e-009 8.18666e-009 7.68101e-009 -3.99081e-009 4.7456e-009 4.43568e-009 -2.28456e-009 -7.73091 5.47488 -0.417314 4.7456e-009 4.43568e-009 -2.28458e-009 -2.90554 0.965183 -0.102902 4.74559e-009 4.43568e-009 -2.28458e-009 -10.2786 0.731801 -0.0259123 4.7456e-009 4.43568e-009 -2.28459e-009 -2.22167 -0.733487 0.20892 -2.03217e-016 0 -3.88251e-019 -0.236646 -13.3465 0.189358 -0.198006 31.9927 0.507603 0.278578 -12.384 2.3547 2.03217e-016 0 3.88251e-019 5.26202 -17.2881 -1.17116 0.300944 37.9262 -0.584534 -2.44229 -11.9325 -9.47071 
54.9954 84.5791 19.0284 -2.70991 -3.96403 -50.2151 -1.74067 14.2056 0.955864 0.734874 -5.75321 0.269208 -14.0411 3.74402 -9.28001 25.8326 16.0178 -18.0271 -0 0 0 -0 0 0 7.50069e-014 -2.10969e-013 -7.68892e-013 79.7582 7.48471 -8.01712 -15.8451 -8.54398 29.3462 -0.0167225 3.69492 0.520011 3.44889e-009 5.48723e-009 -1.75379e-009 5.96273e-009 9.53071e-009 -3.05647e-009 3.44889e-009 5.48723e-009 -1.75379e-009 7.73091 5.47488 0.417314 3.44888e-009 5.48724e-009 -1.75379e-009 2.90554 0.965183 0.102902 3.44889e-009 5.48723e-009 -1.75379e-009 10.2786 0.731801 0.0259123 3.44887e-009 5.48724e-009 -1.75378e-009 2.22167 -0.733487 -0.20892 7.47217e-014 -2.10963e-013 -7.69154e-013 -78.1008 21.8461 -2.77229 14.7967 -7.61577 -27.1709 0.0801132 8.04723 -1.13854 4.26308e-009 3.79331e-009 -2.55559e-009 7.35167e-009 6.56984e-009 -4.45672e-009 4.26308e-009 3.79331e-009 -2.55558e-009 -7.73091 5.47488 -0.417314 4.26308e-009 3.79331e-009 -2.5556e-009 -2.90554 0.965183 -0.102902 4.26307e-009 3.79331e-009 -2.55559e-009 -10.2786 0.731801 -0.0259123 4.26308e-009 3.79331e-009 -2.5556e-009 -2.22167 -0.733487 0.20892 -2.03217e-016 0 -3.88251e-019 -0.191547 -13.5375 0.210653 -0.203374 32.3256 0.513439 0.348237 -12.5474 2.58643 2.03217e-016 0 3.88251e-019 4.32169 -17.6973 -1.31335 0.296156 37.6067 -0.567853 -2.76293 -12.8187 -10.0463 
54.9815 84.5249 19.2951 -2.71161 -3.85087 -49.9212 -1.66465 14.1063 0.970938 0.583203 -5.77668 0.265523 -14.02 3.83314 -9.27814 25.8679 16.086 -18.0646 -0 0 0 -0 0 0 5.63782e-014 -1.86762e-013 -5.66089e-013 79.6544 7.06312 -8.08682 -15.8557 -8.5538 29.3686 -0.0152415 3.52244 0.495677 3.08629e-009 4.35857e-009 -1.33341e-009 5.33781e-009 7.57288e-009 -2.32654e-009 3.08629e-009 4.35857e-009 -1.33341e-009 7.73091 5.47488 0.417314 3.08628e-009 4.35857e-009 -1.33341e-009 2.90554 0.965183 0.102902 3.08629e-009 4.35857e-009 -1.33341e-009 10.2786 0.731801 0.0259123 3.08628e-009 4.35858e-009 -1.3334e-009 2.22167 -0.733487 -0.20892 5.60879e-014 -1.86756e-013 -5.66338e-013 -78.1939 22.1315 -2.74288 14.7561 -7.58095 -27.0881 0.0811161 8.09827 -1.14585 3.81584e-009 3.31508e-009 -2.5187e-009 6.57932e-009 5.7424e-009 -4.3898e-009 3.81584e-009 3.31508e-009 -2.51869e-009 -7.73091 5.47488 -0.417314 3.81584e-009 3.31507e-009 -2.51871e-009 -2.90554 0.965183 -0.102902 3.81583e-009 3.31508e-009 -2.5187e-009 -10.2786 0.731801 -0.0259123 3.81584e-009 3.31508e-009 -2.51871e-009 -2.22167 -0.733487 0.20892 -2.03217e-016 0 -3.88251e-019 -0.139355 -13.7326 0.199272 -0.209454 32.6948 0.519508 0.430186 -12.7188 2.84835 2.03217e-016 0 3.88251e-019 3.38925 -18.0835 -1.60953 0.291051 37.2611 -0.548656 -3.14398 -13.4487 -10.8933 
54.9634 84.4094 19.6013 -2.71398 -3.76566 -49.6247 -1.57888 14.0184 0.953201 0.408235 -5.84187 0.251298 -13.8829 3.96685 -9.24769 25.7648 16.0992 -18.0459 -0 0 0 -0 0 0 1.84811e-014 -7.14408e-014 -4.75064e-013 79.6075 6.71778 -8.2101 -15.8767 -8.57311 29.4126 -0.0139812 3.37333 0.474646 2.78307e-009 3.80685e-009 -1.41203e-009 4.81252e-009 6.61648e-009 -2.46087e-009 2.78307e-009 3.80685e-009 -1.41204e-009 7.73091 5.47488 0.417314 2.78307e-009 3.80685e-009 -1.41203e-009 2.90554 0.965183 0.102902 2.78308e-009 3.80685e-009 -1.41203e-009 10.2786 0.731801 0.0259123 2.78306e-009 3.80686e-009 -1.41202e-009 2.22167 -0.733487 -0.20892 1.82382e-014 -7.14374e-014 -4.753e-013 -78.2627 22.5295 -2.59364 14.7637 -7.5874 -27.1037 0.0793033 8.01019 -1.13322 3.39189e-009 3.07096e-009 -1.92576e-009 5.8503e-009 5.31962e-009 -3.36043e-009 3.39189e-009 3.07096e-009 -1.92575e-009 -7.73091 5.47488 -0.417314 3.39189e-009 3.07096e-009 -1.92577e-009 -2.90554 0.965183 -0.102902 3.39189e-009 3.07096e-009 -1.92576e-009 -10.2786 0.731801 -0.0259123 3.3919e-009 3.07097e-009 -1.92576e-009 -2.22167 -0.733487 0.20892 -2.03217e-016 0 -3.88251e-019 -0.0857978 -13.9419 0.117418 -0.216733 33.1281 0.526105 0.536506 -12.9057 3.17602 2.03217e-016 0 3.88251e-019 2.43043 -18.4416 -2.16179 0.286021 36.8931 -0.525312 -3.61744 -13.8503 -12.0897 
54.96 84.2885 19.9146 -2.71236 -3.70026 -49.3335 -1.48467 13.933 0.908553 0.214864 -5.93927 0.228515 -13.6656 4.13464 -9.19825 25.5743 16.0792 -17.9926 -0 0 0 -0 0 0 -3.09879e-014 9.74791e-014 -4.39442e-013 79.6061 6.41328 -8.37495 -15.9048 -8.59899 29.4716 -0.0128059 3.23054 0.454509 2.46741e-009 3.59322e-009 -1.79824e-009 4.26382e-009 6.24662e-009 -3.12766e-009 2.46741e-009 3.59322e-009 -1.79825e-009 7.73091 5.47488 0.417314 2.46741e-009 3.59321e-009 -1.79823e-009 2.90554 0.965183 0.102902 2.46742e-009 3.59322e-009 -1.79824e-009 10.2786 0.731801 0.0259123 2.4674e-009 3.59322e-009 -1.79823e-009 2.22167 -0.733487 -0.20892 -3.11498e-014 9.7478e-014 -4.39665e-013 -78.3119 22.9933 -2.36082 14.7985 -7.61712 -27.175 0.0760831 7.84834 -1.11002 2.93202e-009 2.94449e-009 -9.7698e-010 5.06117e-009 5.1001e-009 -1.71482e-009 2.93202e-009 2.94448e-009 -9.76973e-010 -7.73091 5.47488 -0.417314 2.93202e-009 2.94448e-009 -9.76989e-010 -2.90554 0.965183 -0.102902 2.93202e-009 2.94448e-009 -9.7698e-010 -10.2786 0.731801 -0.0259123 2.93203e-009 2.94449e-009 -9.76985e-010 -2.22167 -0.733487 0.20892 -2.03217e-016 0 -3.88251e-019 -0.0329993 -14.1624 -0.0231905 -0.224918 33.6057 0.533058 0.66116 -13.1012 3.54965 2.03217e-016 0 3.88251e-019 1.44626 -18.7795 -2.91671 0.280999 36.4935 -0.498637 -4.15224 -14.0743 -13.525 
54.9359 84.1586 20.224 -2.70911 -3.64535 -49.0431 -1.39627 13.8623 0.846292 0.0429211 -6.032 0.20169 -13.4565 4.26995 -9.14679 25.3934 16.0732 -17.9333 -0 0 0 -0 0 0 -7.38851e-014 2.47874e-013 -4.31349e-013 79.6052 6.13704 -8.52074 -15.9347 -8.62664 29.5347 -0.011802 3.10262 0.436475 2.18773e-009 3.47129e-009 -2.20376e-009 3.77728e-009 6.03562e-009 -3.8281e-009 2.18774e-009 3.47129e-009 -2.20377e-009 7.73091 5.47488 0.417314 2.18774e-009 3.47128e-009 -2.20375e-009 2.90554 0.965183 0.102902 2.18774e-009 3.47128e-009 -2.20376e-009 10.2786 0.731801 0.0259123 2.18772e-009 3.47128e-009 -2.20375e-009 2.22167 -0.733487 -0.20892 -7.39693e-014 2.47869e-013 -4.3156e-013 -78.3605 23.4316 -2.12045 14.8337 -7.64719 -27.2471 0.0731737 7.69607 -1.08823 2.50764e-009 2.86557e-009 -8.05355e-011 4.33293e-009 4.96283e-009 -1.59968e-010 2.50763e-009 2.86556e-009 -8.05303e-011 -7.73091 5.47488 -0.417314 2.50763e-009 2.86556e-009 -8.05448e-011 -2.90554 0.965183 -0.102902 2.50763e-009 2.86556e-009 -8.05364e-011 -10.2786 0.731801 -0.0259123 2.50764e-009 2.86557e-009 -8.0543e-011 -2.22167 -0.733487 0.20892 -2.03217e-016 0 -3.88251e-019 0.032089 -14.3736 -0.146643 -0.233213 34.0801 0.539904 0.783034 -13.2932 3.90442 2.03217e-016 0 3.88251e-019 0.50261 -19.0985 -3.68803 0.275542 36.0609 -0.471936 -4.67524 -14.0106 -15.0958 
